HIERARCHY
ROOT Hips
{
	OFFSET -3.958830 18.904000 13.208200
	CHANNELS 6 Xposition Yposition Zposition Zrotation Yrotation Xrotation 
	JOINT LHipJoint
	{
		OFFSET 0.000000 0.000000 0.000000
		CHANNELS 3 Zrotation Yrotation Xrotation
		JOINT LeftUpLeg
		{
			OFFSET 1.800000 -1.400000 0.085000
			CHANNELS 3 Zrotation Yrotation Xrotation
			JOINT LeftLeg
			{
				OFFSET 2.215000 -6.000000 0.000000
				CHANNELS 3 Zrotation Yrotation Xrotation
				JOINT LeftFoot
				{
					OFFSET 2.500000 -6.900000 0.000000
					CHANNELS 3 Zrotation Yrotation Xrotation
					JOINT LeftToeBase
					{
						OFFSET 0.200000 -0.500000 1.950000
						CHANNELS 3 Zrotation Yrotation Xrotation
						End Site
						{
							OFFSET 0.000000 0.000000 0.000000
						}
					}
				}
			}
		}
	}
	JOINT RHipJoint
	{
		OFFSET 0.000000 0.000000 0.000000
		CHANNELS 3 Zrotation Yrotation Xrotation
		JOINT RightUpLeg
		{
			OFFSET -1.800000 -1.400000 0.085000
			CHANNELS 3 Zrotation Yrotation Xrotation
			JOINT RightLeg
			{
				OFFSET -2.215000 -6.000000 0.000000
				CHANNELS 3 Zrotation Yrotation Xrotation
				JOINT RightFoot
				{
					OFFSET -2.500000 -6.900000 0.000000
					CHANNELS 3 Zrotation Yrotation Xrotation
					JOINT RightToeBase
					{
						OFFSET -0.200000 -0.500000 1.950000
						CHANNELS 3 Zrotation Yrotation Xrotation
						End Site
						{
							OFFSET 0.000000 0.000000 0.000000
						}
					}
				}
			}
		}
	}
	JOINT LowerBack
	{
		OFFSET 0.000000 0.000000 0.000000
		CHANNELS 3 Zrotation Yrotation Xrotation
		JOINT Spine
		{
			OFFSET -0.087000 1.940000 -0.288900
			CHANNELS 3 Zrotation Yrotation Xrotation
			JOINT Spine1
			{
				OFFSET 0.000000 1.950000 0.060000
				CHANNELS 3 Zrotation Yrotation Xrotation
				JOINT Neck
				{
					OFFSET 0.000000 0.000000 0.000000
					CHANNELS 3 Zrotation Yrotation Xrotation
					JOINT Neck1
					{
						OFFSET 0.000000 1.600000 0.340000
						CHANNELS 3 Zrotation Yrotation Xrotation
						JOINT Head
						{
							OFFSET 0.000000 1.667000 -0.240000
							CHANNELS 3 Zrotation Yrotation Xrotation
							End Site
							{
								OFFSET 0.000000 0.000000 0.000000
							}
						}
					}
				}
				JOINT LeftShoulder
				{
					OFFSET 0.000000 0.000000 0.000000
					CHANNELS 3 Zrotation Yrotation Xrotation
					JOINT LeftArm
					{
						OFFSET 2.700000 1.550000 -0.730000
						CHANNELS 3 Zrotation Yrotation Xrotation
						JOINT LeftForeArm
						{
							OFFSET 5.450000 0.000000 0.000000
							CHANNELS 3 Zrotation Yrotation Xrotation
							JOINT LeftHand
							{
								OFFSET 3.450000 0.000000 0.000000
								CHANNELS 3 Zrotation Yrotation Xrotation
								JOINT LeftHandIndex1
								{
									OFFSET 0.750000 0.000000 0.000000
									CHANNELS 3 Zrotation Yrotation Xrotation
									End Site
									{
										OFFSET 0.000000 0.000000 0.000000
									}
								}
							}
						}
					}
				}
				JOINT RightShoulder
				{
					OFFSET 0.000000 0.000000 0.000000
					CHANNELS 3 Zrotation Yrotation Xrotation
					JOINT RightArm
					{
						OFFSET -2.700000 1.550000 -0.730000
						CHANNELS 3 Zrotation Yrotation Xrotation
						JOINT RightForeArm
						{
							OFFSET -5.450000 0.000000 0.000000
							CHANNELS 3 Zrotation Yrotation Xrotation
							JOINT RightHand
							{
								OFFSET -3.450000 0.000000 0.000000
								CHANNELS 3 Zrotation Yrotation Xrotation
								JOINT RightHandIndex1
								{
									OFFSET -0.750000 0.000000 0.000000
									CHANNELS 3 Zrotation Yrotation Xrotation
									End Site
									{
										OFFSET 0.000000 0.000000 0.000000
									}
								}
							}
						}
					}
				}
			}
		}
	}
}
MOTION
Frames: 12
Frame Time: 0.016667
16.941040 17.645520 -21.749370 41.179103 66.562429 49.025381 -15.136497 13.091802 4.176753 -2.437242 -0.032618 2.172541 -7.023870 3.407412 -4.828028 0.306226 4.243847 3.427727 0.090030 -0.152610 -0.153320 18.025036 -10.905526 3.933816 4.163740 2.797976 -22.239102 6.775328 -2.004269 0.404780 0.168993 -2.205222 3.740825 -0.118470 0.436420 0.391070 -2.898443 -0.211578 -8.862490 -7.936314 -7.882206 -0.698175 0.817006 -7.225487 -22.565593 2.616136 2.418261 -17.364622 -0.512250 -18.934644 36.281467 -10.150070 -21.309920 6.131520 17.937260 -5.117306 -1.399492 -13.162737 -31.776169 10.936847 -0.634125 12.027691 -0.684579 -4.535972 2.592248 -0.106150 0.312360 -0.235470 0.272540 -24.310995 4.038075 12.005250 21.967375 -9.593860 -3.726827 -1.049449 -7.644302 -0.141220 3.044560 -0.965770 0.097570 -0.033510 0.064020 0.198810 
16.968720 17.746030 -21.568190 44.753328 65.530043 48.317440 -15.072680 12.706300 4.159595 -3.377151 0.544790 4.770585 -10.030650 3.675746 -5.586434 0.525122 4.423570 3.286366 0.252310 0.020630 0.036670 18.210432 -10.835474 3.691806 0.626598 1.486260 -17.259585 7.364589 -2.143154 -2.959652 -0.068586 -2.644134 3.526101 -0.096980 0.212790 0.389670 -3.058471 0.324338 -8.625618 -12.822950 -6.220168 -1.140138 1.800154 -7.435992 -11.518732 1.343694 3.832429 -20.908813 2.339687 -16.851960 36.922900 -7.314360 -18.139910 4.148310 18.611729 -14.273321 2.407488 -8.411426 -28.095486 7.795831 0.002748 16.949994 -0.484005 -4.536539 2.643518 -0.031070 0.155650 -0.073300 0.269310 -23.068000 9.600605 14.922741 28.213728 -13.688015 -4.283387 -0.047873 -6.180994 -0.083956 3.056691 -1.098021 0.203060 -0.162470 -0.095460 0.167530 
17.030330 17.944350 -21.442330 36.528107 67.383964 38.662535 -15.259607 13.131602 3.904935 -1.473411 0.357064 3.561187 -6.242348 3.970941 -2.313298 0.231130 4.294698 3.385176 0.148780 -0.248600 0.110960 17.995824 -10.725282 3.919131 3.860169 1.742473 -13.904866 3.417819 -1.710433 -5.587922 -0.096419 -2.592622 3.560070 -0.180110 0.236890 0.253520 -2.904195 -0.992871 -8.828202 -6.839452 -6.015754 0.700297 0.840164 -5.643845 -11.194182 1.149405 4.431363 -21.626531 1.593486 -16.298723 42.838222 -5.578990 -19.565010 5.080020 17.636858 -16.597643 2.192299 -9.633731 -30.482749 8.275401 0.504453 24.441102 -0.223620 -4.605421 2.392115 0.201500 0.072870 -0.115320 0.193510 -20.832457 11.351890 15.893978 30.448851 -17.290397 -5.326174 -11.158501 -1.790441 1.143638 3.021118 -1.235061 -0.022800 0.002830 -0.011370 0.029550 
17.095380 18.087780 -21.286980 31.732252 66.960633 32.033411 -15.393111 13.300729 3.828195 -2.464646 0.629284 3.197405 -3.358470 3.780474 -0.836005 0.067163 4.033079 3.416764 0.320610 -0.104490 0.313190 17.863716 -10.746839 3.835380 3.459252 1.392212 -11.130152 3.205884 -1.983303 -3.738144 -0.223378 -2.691303 3.458496 -0.090480 0.080280 0.228560 -2.945822 -1.628959 -8.764566 -4.105206 -6.363282 2.683428 -1.065225 -5.408114 -10.066336 1.806241 5.700663 -20.954872 3.992200 -16.942862 43.849979 -4.905950 -19.180020 1.143630 15.243348 -16.867405 1.556716 -4.588134 -29.907717 6.498757 -0.386503 26.196468 -0.571549 -4.469261 2.397176 0.341920 -0.049620 -0.011650 0.182390 -19.925204 12.056765 16.157687 30.635518 -15.322196 -4.809844 -13.000450 -3.402392 1.514957 3.066703 -1.286717 -0.030010 -0.000560 -0.105230 -0.050350 
17.163990 18.264520 -21.137870 22.584832 67.001219 21.910211 -15.593431 13.725682 3.891214 -0.069002 0.155156 2.361590 -2.578780 3.634264 -1.445160 0.035433 4.024078 3.389642 0.382220 -0.002960 0.266140 17.594166 -10.688455 3.802376 4.811373 1.340448 -9.637483 2.995569 -2.309778 0.421997 -0.234053 -2.676015 3.440835 -0.029690 0.073930 0.257140 -3.306109 -2.896390 -8.993496 4.372408 -8.528122 6.718053 -5.189936 -4.956406 -13.263410 2.510612 3.921557 -20.174039 0.703391 -15.720720 45.269547 -3.870600 -19.969020 -1.538750 15.869521 -12.633066 0.383807 -7.459336 -29.499333 7.010499 3.359411 23.907884 0.157696 -4.472972 2.485287 0.337380 -0.068300 0.005010 0.207270 -22.074882 11.366575 15.200196 30.593477 -9.752006 -3.795097 -14.034772 -4.395123 1.724832 3.079866 -1.335219 0.015410 0.000340 -0.087830 -0.017950 
17.144240 18.306100 -21.022330 14.831917 64.806361 6.797730 -15.690429 13.633496 3.737480 2.729165 0.781886 8.283413 -3.194963 4.513099 -1.118732 0.230774 4.757172 3.164997 0.337530 -0.055800 0.296220 17.638673 -10.500287 3.493541 4.501028 -0.018264 -3.022851 5.128150 -3.889778 5.201165 -0.363049 -3.464626 3.186038 -0.055630 0.085210 0.240520 -3.423921 -2.807756 -8.587582 5.567337 -9.051845 11.954401 -4.951762 -6.342607 4.234695 0.569948 4.878497 -23.529248 5.009874 -15.014523 39.431850 -4.594620 -15.757430 -0.064190 15.201047 -18.329690 5.912733 3.992993 -13.973134 1.544201 -4.729946 22.065244 -1.616274 -4.633517 2.033519 0.314030 -0.019870 -0.029990 0.177660 -19.608410 17.718171 18.667453 28.995459 -6.538507 -3.403583 -16.948524 -11.073703 2.164366 3.213815 -1.488841 -0.020310 -0.032350 -0.097400 -0.057530 
17.199490 18.346370 -20.864680 14.750619 61.827337 3.227110 -15.653792 13.386764 3.628278 2.004435 1.513081 10.427332 -3.992710 5.000484 0.554083 0.132795 5.045334 3.065896 0.442060 0.123180 0.253240 17.732474 -10.714335 3.221505 1.696063 -0.976237 -0.711452 8.027040 -5.449833 9.025994 -0.541550 -4.037809 2.994444 0.099270 0.192320 0.266810 -3.674806 -2.140164 -8.242464 6.119778 -8.536648 16.665694 -7.149357 -5.800360 6.869620 0.980593 5.008073 -19.764894 6.758363 -14.411251 34.551750 1.960740 -16.089890 -9.985690 16.584873 -13.941651 2.411964 3.170316 -18.385699 1.115778 2.523934 23.525210 -0.469580 -4.784725 2.186111 0.407000 -0.011200 0.025210 0.254190 -21.267679 14.780852 18.293427 30.111099 -2.783810 -2.195071 -17.031341 -9.271504 1.684429 2.972089 -1.443175 -0.064150 0.162610 -0.062830 -0.028070 
17.249380 18.418320 -20.660600 15.244216 59.841569 1.126180 -15.707844 13.528760 3.538945 1.311337 1.806925 10.414854 -4.228318 5.438157 3.674813 0.149269 5.066173 3.027962 0.537420 0.234800 0.393670 17.697191 -10.699554 3.074861 0.711129 -1.226260 0.856229 6.071856 -5.410465 10.633438 -0.588849 -4.160321 2.917114 0.156430 0.100600 0.274480 -3.358846 -2.359030 -7.982021 3.088880 -6.851902 17.879451 -5.387812 -5.272305 12.267238 1.852789 5.546817 -19.880105 8.179876 -13.066292 32.301447 0.585700 -12.951850 -10.500040 15.140693 -15.024485 3.808743 6.210214 -15.411953 -0.082269 3.950006 22.239590 -0.486185 -4.762496 2.255162 0.387740 -0.026040 0.072100 0.238300 -20.928813 15.773821 18.439757 29.498739 -1.667376 -0.681481 -9.954882 -13.118705 1.575084 3.026041 -1.302265 -0.025470 0.102470 -0.151170 -0.064060 
17.354450 18.442630 -20.453250 14.458146 59.026228 2.738677 -15.720950 13.662443 3.401780 -0.175957 1.502022 5.779797 -4.265492 5.376075 6.374435 0.007219 4.722195 3.162308 0.430600 0.099110 0.349090 17.672002 -10.714017 3.080788 0.910123 -0.833715 -1.687880 5.116372 -4.796851 9.412439 -0.458403 -3.812869 3.055531 0.087500 0.142880 0.259880 -3.221710 -2.547279 -7.874365 3.511674 -5.325853 16.481173 -3.280950 -4.308341 10.328627 1.630318 5.592523 -19.793908 8.180357 -14.878705 29.162837 -0.682660 -14.003380 -9.435230 15.872596 -15.334625 4.377217 3.101072 -16.938422 1.099476 4.325099 20.915464 -0.418524 -4.691352 2.282665 0.379650 0.008650 0.023550 0.207240 -21.147803 14.448130 17.615411 31.687924 -6.188328 -3.188499 -14.808983 -8.055130 1.372958 2.974952 -1.414381 -0.074010 0.114690 -0.100820 -0.077750 
17.446290 18.422280 -20.281540 9.884878 58.619312 -0.028932 -15.684988 13.414508 3.137407 0.833806 1.044069 3.308132 -5.263342 5.219835 5.876595 -0.066249 4.560363 3.171476 0.597260 0.346560 0.342080 17.824984 -10.576482 3.036570 2.757026 -0.552893 -3.216868 3.655587 -4.094699 7.828541 -0.435562 -3.725166 3.027930 0.255310 0.180750 0.372880 -3.547434 -2.249637 -7.591039 7.564361 -7.330332 13.965678 -4.752776 -6.383009 15.829324 1.876601 4.919499 -18.252801 8.512549 -12.387517 20.784667 0.686240 -11.354290 -11.159390 14.678929 -14.026633 5.837932 5.345185 -11.652386 0.915601 0.829237 18.396685 -1.277987 -4.708912 2.464969 0.233250 0.097350 -0.003950 0.282830 -20.249373 12.473624 16.012646 26.736187 -2.029576 -2.706325 -20.878006 -3.770904 -0.133263 2.837330 -1.908575 0.030990 0.015190 -0.156870 -0.014850 
17.514340 18.381760 -20.047300 7.254973 57.410218 -0.346540 -15.649577 13.207761 2.943614 1.658499 0.541372 0.239310 -6.349293 5.158592 6.297855 -0.331505 4.563061 3.140393 0.672690 0.475630 0.314200 17.918021 -10.550047 3.048953 4.484988 0.170931 -6.274221 2.367950 -3.407229 6.718377 -0.333717 -3.493949 3.066755 0.440960 0.317870 0.429600 -3.706134 -1.854744 -7.419414 9.634563 -7.287021 11.968340 -4.899487 -6.831851 15.996349 2.845659 4.205055 -15.848813 8.206062 -10.959626 16.613590 0.049980 -10.137880 -12.700840 14.335091 -10.978705 4.313348 2.507020 -14.077763 1.854433 5.148734 16.469613 -0.840977 -4.860415 2.678506 0.152060 0.240050 -0.084190 0.298310 -21.138337 9.569482 14.041158 28.176667 1.379397 -2.911508 -25.492541 -0.256586 -1.449086 2.593563 -2.139897 -0.005760 0.113610 -0.077860 -0.009890 
17.643240 18.323480 -19.818890 4.998078 55.105204 0.198540 -15.604323 13.194235 2.887823 0.977296 0.102974 -3.336097 -6.196419 5.014572 7.741901 -0.512468 4.339445 3.199208 0.648000 0.411140 0.328370 17.937638 -10.589907 3.133210 4.972870 0.856685 -9.792122 2.294505 -3.001135 5.571098 -0.230759 -3.157217 3.163672 0.438360 0.315940 0.429580 -3.800192 -1.719680 -7.476387 13.196770 -5.979039 10.850433 -5.623877 -5.089950 11.783492 3.761161 3.734505 -14.340286 7.980541 -14.269212 15.728117 -2.345040 -12.150570 -12.622280 10.647410 -10.031787 1.972988 3.901083 -19.120228 1.704792 8.832232 16.099227 -0.579921 -4.830928 2.816199 0.180480 0.253470 -0.111200 0.263510 -19.119144 8.493479 13.646464 28.195048 -5.073153 -5.690593 -28.103704 8.903504 -2.988434 2.379420 -2.216783 -0.050420 0.132390 -0.032290 -0.052330 
